<mxfile host="app.diagrams.net" agent="Mozilla/5.0 (Windows NT 10.0; Win64; x64) AppleWebKit/537.36 (KHTML, like Gecko) Chrome/128.0.0.0 Safari/537.36 OPR/114.0.0.0" version="25.0.1">
  <diagram name="Página-1" id="KOfIU7jKedHMGHLrOH1f">
    <mxGraphModel dx="2533" dy="1373" grid="1" gridSize="10" guides="1" tooltips="1" connect="1" arrows="1" fold="1" page="1" pageScale="1" pageWidth="827" pageHeight="1169" math="0" shadow="0">
      <root>
        <mxCell id="0" />
        <mxCell id="1" parent="0" />
        <mxCell id="FAglLiWrUDAGm60mL0na-12" value="Cafeteria HCC" style="swimlane;childLayout=stackLayout;resizeParent=1;resizeParentMax=0;startSize=20;html=1;" parent="1" vertex="1">
          <mxGeometry x="210.00000000000045" y="110" width="1800" height="1040" as="geometry" />
        </mxCell>
        <mxCell id="FAglLiWrUDAGm60mL0na-13" value="Recepcion" style="swimlane;startSize=20;html=1;" parent="FAglLiWrUDAGm60mL0na-12" vertex="1">
          <mxGeometry y="20" width="600" height="1020" as="geometry">
            <mxRectangle y="20" width="40" height="460" as="alternateBounds" />
          </mxGeometry>
        </mxCell>
        <mxCell id="8RAqlN66zT2HLcXRzkkI-7" style="edgeStyle=orthogonalEdgeStyle;rounded=0;orthogonalLoop=1;jettySize=auto;html=1;exitX=0.5;exitY=1;exitDx=0;exitDy=0;exitPerimeter=0;" edge="1" parent="FAglLiWrUDAGm60mL0na-13" source="FAglLiWrUDAGm60mL0na-18" target="8RAqlN66zT2HLcXRzkkI-5">
          <mxGeometry relative="1" as="geometry" />
        </mxCell>
        <mxCell id="FAglLiWrUDAGm60mL0na-18" value="INICIO" style="points=[[0.145,0.145,0],[0.5,0,0],[0.855,0.145,0],[1,0.5,0],[0.855,0.855,0],[0.5,1,0],[0.145,0.855,0],[0,0.5,0]];shape=mxgraph.bpmn.event;html=1;verticalLabelPosition=bottom;labelBackgroundColor=#ffffff;verticalAlign=top;align=center;perimeter=ellipsePerimeter;outlineConnect=0;aspect=fixed;outline=standard;symbol=message;" parent="FAglLiWrUDAGm60mL0na-13" vertex="1">
          <mxGeometry x="54.999999999999545" y="30" width="50" height="50" as="geometry" />
        </mxCell>
        <mxCell id="8RAqlN66zT2HLcXRzkkI-5" value="Cliente llega a la cafetería." style="points=[[0.25,0,0],[0.5,0,0],[0.75,0,0],[1,0.25,0],[1,0.5,0],[1,0.75,0],[0.75,1,0],[0.5,1,0],[0.25,1,0],[0,0.75,0],[0,0.5,0],[0,0.25,0]];shape=mxgraph.bpmn.task;whiteSpace=wrap;rectStyle=rounded;size=10;html=1;container=1;expand=0;collapsible=0;taskMarker=user;" vertex="1" parent="FAglLiWrUDAGm60mL0na-13">
          <mxGeometry x="19.999999999999545" y="150" width="120" height="80" as="geometry" />
        </mxCell>
        <mxCell id="8RAqlN66zT2HLcXRzkkI-23" value="Se retira el cliente" style="points=[[0.25,0,0],[0.5,0,0],[0.75,0,0],[1,0.25,0],[1,0.5,0],[1,0.75,0],[0.75,1,0],[0.5,1,0],[0.25,1,0],[0,0.75,0],[0,0.5,0],[0,0.25,0]];shape=mxgraph.bpmn.task;whiteSpace=wrap;rectStyle=rounded;size=10;html=1;container=1;expand=0;collapsible=0;taskMarker=user;" vertex="1" parent="FAglLiWrUDAGm60mL0na-13">
          <mxGeometry x="229.99999999999955" y="560" width="120" height="80" as="geometry" />
        </mxCell>
        <mxCell id="8RAqlN66zT2HLcXRzkkI-24" value="FIn" style="points=[[0.145,0.145,0],[0.5,0,0],[0.855,0.145,0],[1,0.5,0],[0.855,0.855,0],[0.5,1,0],[0.145,0.855,0],[0,0.5,0]];shape=mxgraph.bpmn.event;html=1;verticalLabelPosition=bottom;labelBackgroundColor=#ffffff;verticalAlign=top;align=center;perimeter=ellipsePerimeter;outlineConnect=0;aspect=fixed;outline=end;symbol=message;" vertex="1" parent="FAglLiWrUDAGm60mL0na-13">
          <mxGeometry x="264.99999999999955" y="730" width="50" height="50" as="geometry" />
        </mxCell>
        <mxCell id="8RAqlN66zT2HLcXRzkkI-26" style="edgeStyle=orthogonalEdgeStyle;rounded=0;orthogonalLoop=1;jettySize=auto;html=1;exitX=0.5;exitY=1;exitDx=0;exitDy=0;exitPerimeter=0;entryX=0.5;entryY=0;entryDx=0;entryDy=0;entryPerimeter=0;" edge="1" parent="FAglLiWrUDAGm60mL0na-13" source="8RAqlN66zT2HLcXRzkkI-23" target="8RAqlN66zT2HLcXRzkkI-24">
          <mxGeometry relative="1" as="geometry" />
        </mxCell>
        <mxCell id="8RAqlN66zT2HLcXRzkkI-14" style="edgeStyle=orthogonalEdgeStyle;rounded=0;orthogonalLoop=1;jettySize=auto;html=1;exitX=1;exitY=0.5;exitDx=0;exitDy=0;exitPerimeter=0;entryX=0;entryY=0.5;entryDx=0;entryDy=0;entryPerimeter=0;" edge="1" parent="FAglLiWrUDAGm60mL0na-13" source="8RAqlN66zT2HLcXRzkkI-5" target="8RAqlN66zT2HLcXRzkkI-74">
          <mxGeometry relative="1" as="geometry">
            <mxPoint x="240" y="190" as="targetPoint" />
          </mxGeometry>
        </mxCell>
        <mxCell id="8RAqlN66zT2HLcXRzkkI-20" style="edgeStyle=orthogonalEdgeStyle;rounded=0;orthogonalLoop=1;jettySize=auto;html=1;entryX=0.5;entryY=0;entryDx=0;entryDy=0;entryPerimeter=0;exitX=0.5;exitY=1;exitDx=0;exitDy=0;exitPerimeter=0;" edge="1" parent="FAglLiWrUDAGm60mL0na-13" source="8RAqlN66zT2HLcXRzkkI-74" target="8RAqlN66zT2HLcXRzkkI-75">
          <mxGeometry relative="1" as="geometry">
            <mxPoint x="369.99999999999955" y="270" as="sourcePoint" />
            <mxPoint x="290.05882352941126" y="300.05882352941194" as="targetPoint" />
          </mxGeometry>
        </mxCell>
        <mxCell id="8RAqlN66zT2HLcXRzkkI-35" value="NO" style="edgeLabel;html=1;align=center;verticalAlign=middle;resizable=0;points=[];" vertex="1" connectable="0" parent="8RAqlN66zT2HLcXRzkkI-20">
          <mxGeometry x="-0.1123" y="-1" relative="1" as="geometry">
            <mxPoint as="offset" />
          </mxGeometry>
        </mxCell>
        <mxCell id="8RAqlN66zT2HLcXRzkkI-42" style="edgeStyle=orthogonalEdgeStyle;rounded=0;orthogonalLoop=1;jettySize=auto;html=1;entryX=0.5;entryY=0;entryDx=0;entryDy=0;entryPerimeter=0;exitX=0.5;exitY=1;exitDx=0;exitDy=0;exitPerimeter=0;" edge="1" parent="FAglLiWrUDAGm60mL0na-13" source="8RAqlN66zT2HLcXRzkkI-75" target="8RAqlN66zT2HLcXRzkkI-23">
          <mxGeometry relative="1" as="geometry">
            <mxPoint x="249.99999999999955" y="340" as="sourcePoint" />
          </mxGeometry>
        </mxCell>
        <mxCell id="8RAqlN66zT2HLcXRzkkI-43" value="NO" style="edgeLabel;html=1;align=center;verticalAlign=middle;resizable=0;points=[];" vertex="1" connectable="0" parent="8RAqlN66zT2HLcXRzkkI-42">
          <mxGeometry x="-0.1024" relative="1" as="geometry">
            <mxPoint as="offset" />
          </mxGeometry>
        </mxCell>
        <mxCell id="8RAqlN66zT2HLcXRzkkI-38" value="Espera cliente a liberar especio" style="points=[[0.25,0,0],[0.5,0,0],[0.75,0,0],[1,0.25,0],[1,0.5,0],[1,0.75,0],[0.75,1,0],[0.5,1,0],[0.25,1,0],[0,0.75,0],[0,0.5,0],[0,0.25,0]];shape=mxgraph.bpmn.task;whiteSpace=wrap;rectStyle=rounded;size=10;html=1;container=1;expand=0;collapsible=0;taskMarker=user;" vertex="1" parent="FAglLiWrUDAGm60mL0na-13">
          <mxGeometry x="419.99999999999955" y="300" width="120" height="80" as="geometry" />
        </mxCell>
        <mxCell id="8RAqlN66zT2HLcXRzkkI-74" value="Verificar disponibilidad de lugares." style="strokeWidth=2;html=1;shape=mxgraph.flowchart.decision;whiteSpace=wrap;" vertex="1" parent="FAglLiWrUDAGm60mL0na-13">
          <mxGeometry x="239.99999999999955" y="130" width="100" height="100" as="geometry" />
        </mxCell>
        <mxCell id="8RAqlN66zT2HLcXRzkkI-75" value="¿Esperar o irse?" style="strokeWidth=2;html=1;shape=mxgraph.flowchart.decision;whiteSpace=wrap;" vertex="1" parent="FAglLiWrUDAGm60mL0na-13">
          <mxGeometry x="239.99999999999955" y="290" width="100" height="100" as="geometry" />
        </mxCell>
        <mxCell id="8RAqlN66zT2HLcXRzkkI-92" style="edgeStyle=orthogonalEdgeStyle;rounded=0;orthogonalLoop=1;jettySize=auto;html=1;exitX=1;exitY=0.5;exitDx=0;exitDy=0;exitPerimeter=0;entryX=0;entryY=0.5;entryDx=0;entryDy=0;entryPerimeter=0;" edge="1" parent="FAglLiWrUDAGm60mL0na-13" source="8RAqlN66zT2HLcXRzkkI-75" target="8RAqlN66zT2HLcXRzkkI-38">
          <mxGeometry relative="1" as="geometry" />
        </mxCell>
        <mxCell id="8RAqlN66zT2HLcXRzkkI-93" value="SI" style="edgeLabel;html=1;align=center;verticalAlign=middle;resizable=0;points=[];" vertex="1" connectable="0" parent="8RAqlN66zT2HLcXRzkkI-92">
          <mxGeometry x="-0.1188" y="2" relative="1" as="geometry">
            <mxPoint as="offset" />
          </mxGeometry>
        </mxCell>
        <mxCell id="FAglLiWrUDAGm60mL0na-14" value="Atencion" style="swimlane;startSize=20;html=1;" parent="FAglLiWrUDAGm60mL0na-12" vertex="1">
          <mxGeometry x="600" y="20" width="600" height="1020" as="geometry" />
        </mxCell>
        <mxCell id="8RAqlN66zT2HLcXRzkkI-18" value="Asignar mesa" style="points=[[0.25,0,0],[0.5,0,0],[0.75,0,0],[1,0.25,0],[1,0.5,0],[1,0.75,0],[0.75,1,0],[0.5,1,0],[0.25,1,0],[0,0.75,0],[0,0.5,0],[0,0.25,0]];shape=mxgraph.bpmn.task;whiteSpace=wrap;rectStyle=rounded;size=10;html=1;container=1;expand=0;collapsible=0;taskMarker=user;" vertex="1" parent="FAglLiWrUDAGm60mL0na-14">
          <mxGeometry x="89.99999999999955" y="62" width="120" height="80" as="geometry" />
        </mxCell>
        <mxCell id="8RAqlN66zT2HLcXRzkkI-40" value="Entrega Menú" style="points=[[0.25,0,0],[0.5,0,0],[0.75,0,0],[1,0.25,0],[1,0.5,0],[1,0.75,0],[0.75,1,0],[0.5,1,0],[0.25,1,0],[0,0.75,0],[0,0.5,0],[0,0.25,0]];shape=mxgraph.bpmn.task;whiteSpace=wrap;rectStyle=rounded;size=10;html=1;container=1;expand=0;collapsible=0;taskMarker=receive;" vertex="1" parent="FAglLiWrUDAGm60mL0na-14">
          <mxGeometry x="89.99999999999955" y="180" width="120" height="80" as="geometry" />
        </mxCell>
        <mxCell id="8RAqlN66zT2HLcXRzkkI-41" style="edgeStyle=orthogonalEdgeStyle;rounded=0;orthogonalLoop=1;jettySize=auto;html=1;exitX=0.5;exitY=1;exitDx=0;exitDy=0;exitPerimeter=0;" edge="1" parent="FAglLiWrUDAGm60mL0na-14" source="8RAqlN66zT2HLcXRzkkI-18" target="8RAqlN66zT2HLcXRzkkI-40">
          <mxGeometry relative="1" as="geometry" />
        </mxCell>
        <mxCell id="8RAqlN66zT2HLcXRzkkI-54" style="edgeStyle=orthogonalEdgeStyle;rounded=0;orthogonalLoop=1;jettySize=auto;html=1;exitX=1;exitY=0.5;exitDx=0;exitDy=0;exitPerimeter=0;entryX=0.5;entryY=0;entryDx=0;entryDy=0;entryPerimeter=0;" edge="1" parent="FAglLiWrUDAGm60mL0na-14" source="8RAqlN66zT2HLcXRzkkI-52" target="8RAqlN66zT2HLcXRzkkI-73">
          <mxGeometry relative="1" as="geometry">
            <mxPoint x="250.00000000000045" y="440" as="targetPoint" />
          </mxGeometry>
        </mxCell>
        <mxCell id="8RAqlN66zT2HLcXRzkkI-52" value="Esperar 5 minutos" style="points=[[0.25,0,0],[0.5,0,0],[0.75,0,0],[1,0.25,0],[1,0.5,0],[1,0.75,0],[0.75,1,0],[0.5,1,0],[0.25,1,0],[0,0.75,0],[0,0.5,0],[0,0.25,0]];shape=mxgraph.bpmn.task;whiteSpace=wrap;rectStyle=rounded;size=10;html=1;container=1;expand=0;collapsible=0;taskMarker=receive;" vertex="1" parent="FAglLiWrUDAGm60mL0na-14">
          <mxGeometry x="89.99999999999955" y="320" width="120" height="80" as="geometry" />
        </mxCell>
        <mxCell id="8RAqlN66zT2HLcXRzkkI-53" style="edgeStyle=orthogonalEdgeStyle;rounded=0;orthogonalLoop=1;jettySize=auto;html=1;exitX=0.5;exitY=1;exitDx=0;exitDy=0;exitPerimeter=0;entryX=0.5;entryY=0;entryDx=0;entryDy=0;entryPerimeter=0;" edge="1" parent="FAglLiWrUDAGm60mL0na-14" source="8RAqlN66zT2HLcXRzkkI-40" target="8RAqlN66zT2HLcXRzkkI-52">
          <mxGeometry relative="1" as="geometry" />
        </mxCell>
        <mxCell id="8RAqlN66zT2HLcXRzkkI-55" style="edgeStyle=orthogonalEdgeStyle;rounded=0;orthogonalLoop=1;jettySize=auto;html=1;exitX=0;exitY=0.5;exitDx=0;exitDy=0;entryX=0.5;entryY=1;entryDx=0;entryDy=0;entryPerimeter=0;exitPerimeter=0;" edge="1" parent="FAglLiWrUDAGm60mL0na-14" source="8RAqlN66zT2HLcXRzkkI-73" target="8RAqlN66zT2HLcXRzkkI-52">
          <mxGeometry relative="1" as="geometry">
            <mxPoint x="300.00000000000045" y="490" as="sourcePoint" />
          </mxGeometry>
        </mxCell>
        <mxCell id="8RAqlN66zT2HLcXRzkkI-56" value="NO" style="edgeLabel;html=1;align=center;verticalAlign=middle;resizable=0;points=[];" vertex="1" connectable="0" parent="8RAqlN66zT2HLcXRzkkI-55">
          <mxGeometry x="-0.0587" y="3" relative="1" as="geometry">
            <mxPoint x="-12" y="-3" as="offset" />
          </mxGeometry>
        </mxCell>
        <mxCell id="8RAqlN66zT2HLcXRzkkI-57" value="Levantar orden" style="points=[[0.25,0,0],[0.5,0,0],[0.75,0,0],[1,0.25,0],[1,0.5,0],[1,0.75,0],[0.75,1,0],[0.5,1,0],[0.25,1,0],[0,0.75,0],[0,0.5,0],[0,0.25,0]];shape=mxgraph.bpmn.task;whiteSpace=wrap;rectStyle=rounded;size=10;html=1;container=1;expand=0;collapsible=0;taskMarker=receive;" vertex="1" parent="FAglLiWrUDAGm60mL0na-14">
          <mxGeometry x="430.99999999999955" y="80" width="120" height="80" as="geometry" />
        </mxCell>
        <mxCell id="8RAqlN66zT2HLcXRzkkI-58" style="edgeStyle=orthogonalEdgeStyle;rounded=0;orthogonalLoop=1;jettySize=auto;html=1;exitX=1;exitY=0.5;exitDx=0;exitDy=0;entryX=0;entryY=0.5;entryDx=0;entryDy=0;entryPerimeter=0;exitPerimeter=0;" edge="1" parent="FAglLiWrUDAGm60mL0na-14" source="8RAqlN66zT2HLcXRzkkI-73" target="8RAqlN66zT2HLcXRzkkI-57">
          <mxGeometry relative="1" as="geometry">
            <mxPoint x="300.00000000000045" y="390" as="sourcePoint" />
            <mxPoint x="299.99999999999955" y="210" as="targetPoint" />
          </mxGeometry>
        </mxCell>
        <mxCell id="8RAqlN66zT2HLcXRzkkI-59" value="SI" style="edgeLabel;html=1;align=center;verticalAlign=middle;resizable=0;points=[];" vertex="1" connectable="0" parent="8RAqlN66zT2HLcXRzkkI-58">
          <mxGeometry x="-0.0287" y="2" relative="1" as="geometry">
            <mxPoint as="offset" />
          </mxGeometry>
        </mxCell>
        <mxCell id="8RAqlN66zT2HLcXRzkkI-68" value="Entrega orden a cliente" style="points=[[0.25,0,0],[0.5,0,0],[0.75,0,0],[1,0.25,0],[1,0.5,0],[1,0.75,0],[0.75,1,0],[0.5,1,0],[0.25,1,0],[0,0.75,0],[0,0.5,0],[0,0.25,0]];shape=mxgraph.bpmn.task;whiteSpace=wrap;rectStyle=rounded;size=10;html=1;container=1;expand=0;collapsible=0;taskMarker=user;" vertex="1" parent="FAglLiWrUDAGm60mL0na-14">
          <mxGeometry x="430.99999999999955" y="190" width="120" height="80" as="geometry" />
        </mxCell>
        <mxCell id="8RAqlN66zT2HLcXRzkkI-70" value="Preguntar al cliente si necesita algo más." style="strokeWidth=2;html=1;shape=mxgraph.flowchart.decision;whiteSpace=wrap;" vertex="1" parent="FAglLiWrUDAGm60mL0na-14">
          <mxGeometry x="437.25" y="520" width="107.5" height="110" as="geometry" />
        </mxCell>
        <mxCell id="8RAqlN66zT2HLcXRzkkI-66" value="Esperar 20 minutos" style="points=[[0.25,0,0],[0.5,0,0],[0.75,0,0],[1,0.25,0],[1,0.5,0],[1,0.75,0],[0.75,1,0],[0.5,1,0],[0.25,1,0],[0,0.75,0],[0,0.5,0],[0,0.25,0]];shape=mxgraph.bpmn.task;whiteSpace=wrap;rectStyle=rounded;size=10;html=1;container=1;expand=0;collapsible=0;taskMarker=receive;" vertex="1" parent="FAglLiWrUDAGm60mL0na-14">
          <mxGeometry x="430.99999999999955" y="360" width="120" height="80" as="geometry" />
        </mxCell>
        <mxCell id="8RAqlN66zT2HLcXRzkkI-72" style="edgeStyle=orthogonalEdgeStyle;rounded=0;orthogonalLoop=1;jettySize=auto;html=1;exitX=0.5;exitY=1;exitDx=0;exitDy=0;exitPerimeter=0;entryX=0.5;entryY=0;entryDx=0;entryDy=0;entryPerimeter=0;" edge="1" parent="FAglLiWrUDAGm60mL0na-14" source="8RAqlN66zT2HLcXRzkkI-68" target="8RAqlN66zT2HLcXRzkkI-66">
          <mxGeometry relative="1" as="geometry">
            <mxPoint x="430.99999999999955" y="330" as="sourcePoint" />
            <mxPoint x="369.99999999999955" y="440" as="targetPoint" />
          </mxGeometry>
        </mxCell>
        <mxCell id="8RAqlN66zT2HLcXRzkkI-73" value="Preguntar si la orden está lista." style="strokeWidth=2;html=1;shape=mxgraph.flowchart.decision;whiteSpace=wrap;" vertex="1" parent="FAglLiWrUDAGm60mL0na-14">
          <mxGeometry x="219.99999999999955" y="440" width="100" height="100" as="geometry" />
        </mxCell>
        <mxCell id="8RAqlN66zT2HLcXRzkkI-78" style="edgeStyle=orthogonalEdgeStyle;rounded=0;orthogonalLoop=1;jettySize=auto;html=1;exitX=0;exitY=0.5;exitDx=0;exitDy=0;exitPerimeter=0;entryX=0;entryY=0.5;entryDx=0;entryDy=0;entryPerimeter=0;" edge="1" parent="FAglLiWrUDAGm60mL0na-14" source="8RAqlN66zT2HLcXRzkkI-70" target="8RAqlN66zT2HLcXRzkkI-52">
          <mxGeometry relative="1" as="geometry" />
        </mxCell>
        <mxCell id="8RAqlN66zT2HLcXRzkkI-81" value="SI" style="edgeLabel;html=1;align=center;verticalAlign=middle;resizable=0;points=[];" vertex="1" connectable="0" parent="8RAqlN66zT2HLcXRzkkI-78">
          <mxGeometry x="-0.4088" y="1" relative="1" as="geometry">
            <mxPoint as="offset" />
          </mxGeometry>
        </mxCell>
        <mxCell id="8RAqlN66zT2HLcXRzkkI-80" style="edgeStyle=orthogonalEdgeStyle;rounded=0;orthogonalLoop=1;jettySize=auto;html=1;exitX=0.5;exitY=1;exitDx=0;exitDy=0;exitPerimeter=0;entryX=0.5;entryY=0;entryDx=0;entryDy=0;entryPerimeter=0;" edge="1" parent="FAglLiWrUDAGm60mL0na-14" source="8RAqlN66zT2HLcXRzkkI-66" target="8RAqlN66zT2HLcXRzkkI-70">
          <mxGeometry relative="1" as="geometry" />
        </mxCell>
        <mxCell id="8RAqlN66zT2HLcXRzkkI-12" value="&lt;span style=&quot;color: rgb(26, 26, 26);&quot;&gt;Cliente Termina Consumó&lt;/span&gt;" style="points=[[0.25,0,0],[0.5,0,0],[0.75,0,0],[1,0.25,0],[1,0.5,0],[1,0.75,0],[0.75,1,0],[0.5,1,0],[0.25,1,0],[0,0.75,0],[0,0.5,0],[0,0.25,0]];shape=mxgraph.bpmn.task;whiteSpace=wrap;rectStyle=rounded;size=10;html=1;container=1;expand=0;collapsible=0;taskMarker=user;" vertex="1" parent="FAglLiWrUDAGm60mL0na-14">
          <mxGeometry x="269.99999999999955" y="690" width="120" height="80" as="geometry" />
        </mxCell>
        <mxCell id="8RAqlN66zT2HLcXRzkkI-82" style="edgeStyle=orthogonalEdgeStyle;rounded=0;orthogonalLoop=1;jettySize=auto;html=1;exitX=0.5;exitY=1;exitDx=0;exitDy=0;exitPerimeter=0;entryX=0.419;entryY=-0.003;entryDx=0;entryDy=0;entryPerimeter=0;" edge="1" parent="FAglLiWrUDAGm60mL0na-14" source="8RAqlN66zT2HLcXRzkkI-70" target="8RAqlN66zT2HLcXRzkkI-65">
          <mxGeometry relative="1" as="geometry">
            <Array as="points">
              <mxPoint x="491" y="640" />
              <mxPoint x="90" y="640" />
            </Array>
          </mxGeometry>
        </mxCell>
        <mxCell id="8RAqlN66zT2HLcXRzkkI-83" value="NO" style="edgeLabel;html=1;align=center;verticalAlign=middle;resizable=0;points=[];" vertex="1" connectable="0" parent="8RAqlN66zT2HLcXRzkkI-82">
          <mxGeometry x="0.0306" y="4" relative="1" as="geometry">
            <mxPoint x="1" y="-4" as="offset" />
          </mxGeometry>
        </mxCell>
        <mxCell id="8RAqlN66zT2HLcXRzkkI-65" value="Atención se retira del cliente" style="points=[[0.25,0,0],[0.5,0,0],[0.75,0,0],[1,0.25,0],[1,0.5,0],[1,0.75,0],[0.75,1,0],[0.5,1,0],[0.25,1,0],[0,0.75,0],[0,0.5,0],[0,0.25,0]];shape=mxgraph.bpmn.task;whiteSpace=wrap;rectStyle=rounded;size=10;html=1;container=1;expand=0;collapsible=0;taskMarker=receive;" vertex="1" parent="FAglLiWrUDAGm60mL0na-14">
          <mxGeometry x="39.999999999999545" y="690" width="120" height="80" as="geometry" />
        </mxCell>
        <mxCell id="8RAqlN66zT2HLcXRzkkI-88" style="edgeStyle=orthogonalEdgeStyle;rounded=0;orthogonalLoop=1;jettySize=auto;html=1;exitX=1;exitY=0.5;exitDx=0;exitDy=0;exitPerimeter=0;entryX=0;entryY=0.5;entryDx=0;entryDy=0;entryPerimeter=0;" edge="1" parent="FAglLiWrUDAGm60mL0na-14" source="8RAqlN66zT2HLcXRzkkI-65" target="8RAqlN66zT2HLcXRzkkI-12">
          <mxGeometry relative="1" as="geometry" />
        </mxCell>
        <mxCell id="8RAqlN66zT2HLcXRzkkI-98" value="Se notifica para limpiar" style="points=[[0.25,0,0],[0.5,0,0],[0.75,0,0],[1,0.25,0],[1,0.5,0],[1,0.75,0],[0.75,1,0],[0.5,1,0],[0.25,1,0],[0,0.75,0],[0,0.5,0],[0,0.25,0]];shape=mxgraph.bpmn.task;whiteSpace=wrap;rectStyle=rounded;size=10;html=1;container=1;expand=0;collapsible=0;taskMarker=receive;" vertex="1" parent="FAglLiWrUDAGm60mL0na-14">
          <mxGeometry x="239.99999999999955" y="870" width="120" height="80" as="geometry" />
        </mxCell>
        <mxCell id="FAglLiWrUDAGm60mL0na-15" value="Preparacion" style="swimlane;startSize=20;html=1;" parent="FAglLiWrUDAGm60mL0na-12" vertex="1">
          <mxGeometry x="1200" y="20" width="300" height="1020" as="geometry" />
        </mxCell>
        <mxCell id="8RAqlN66zT2HLcXRzkkI-13" value="Recibe orden" style="points=[[0.25,0,0],[0.5,0,0],[0.75,0,0],[1,0.25,0],[1,0.5,0],[1,0.75,0],[0.75,1,0],[0.5,1,0],[0.25,1,0],[0,0.75,0],[0,0.5,0],[0,0.25,0]];shape=mxgraph.bpmn.task;whiteSpace=wrap;rectStyle=rounded;size=10;html=1;container=1;expand=0;collapsible=0;taskMarker=receive;" vertex="1" parent="FAglLiWrUDAGm60mL0na-15">
          <mxGeometry x="89.99999999999955" y="80" width="120" height="80" as="geometry" />
        </mxCell>
        <mxCell id="8RAqlN66zT2HLcXRzkkI-61" value="Preparación de insumos" style="points=[[0.25,0,0],[0.5,0,0],[0.75,0,0],[1,0.25,0],[1,0.5,0],[1,0.75,0],[0.75,1,0],[0.5,1,0],[0.25,1,0],[0,0.75,0],[0,0.5,0],[0,0.25,0]];shape=mxgraph.bpmn.task;whiteSpace=wrap;rectStyle=rounded;size=10;html=1;container=1;expand=0;collapsible=0;taskMarker=receive;" vertex="1" parent="FAglLiWrUDAGm60mL0na-15">
          <mxGeometry x="89.99999999999955" y="200" width="120" height="80" as="geometry" />
        </mxCell>
        <mxCell id="8RAqlN66zT2HLcXRzkkI-62" style="edgeStyle=orthogonalEdgeStyle;rounded=0;orthogonalLoop=1;jettySize=auto;html=1;exitX=0.5;exitY=1;exitDx=0;exitDy=0;exitPerimeter=0;entryX=0.5;entryY=0;entryDx=0;entryDy=0;entryPerimeter=0;" edge="1" parent="FAglLiWrUDAGm60mL0na-15" source="8RAqlN66zT2HLcXRzkkI-13" target="8RAqlN66zT2HLcXRzkkI-61">
          <mxGeometry relative="1" as="geometry" />
        </mxCell>
        <mxCell id="8RAqlN66zT2HLcXRzkkI-63" value="Notificar a atención que la orden está lista." style="points=[[0.25,0,0],[0.5,0,0],[0.75,0,0],[1,0.25,0],[1,0.5,0],[1,0.75,0],[0.75,1,0],[0.5,1,0],[0.25,1,0],[0,0.75,0],[0,0.5,0],[0,0.25,0]];shape=mxgraph.bpmn.task;whiteSpace=wrap;rectStyle=rounded;size=10;html=1;container=1;expand=0;collapsible=0;taskMarker=receive;" vertex="1" parent="FAglLiWrUDAGm60mL0na-15">
          <mxGeometry x="89.99999999999955" y="320" width="120" height="80" as="geometry" />
        </mxCell>
        <mxCell id="8RAqlN66zT2HLcXRzkkI-64" style="edgeStyle=orthogonalEdgeStyle;rounded=0;orthogonalLoop=1;jettySize=auto;html=1;exitX=0.5;exitY=1;exitDx=0;exitDy=0;exitPerimeter=0;entryX=0.5;entryY=0;entryDx=0;entryDy=0;entryPerimeter=0;" edge="1" parent="FAglLiWrUDAGm60mL0na-15" source="8RAqlN66zT2HLcXRzkkI-61" target="8RAqlN66zT2HLcXRzkkI-63">
          <mxGeometry relative="1" as="geometry" />
        </mxCell>
        <mxCell id="FAglLiWrUDAGm60mL0na-16" value="Caja" style="swimlane;startSize=20;html=1;" parent="FAglLiWrUDAGm60mL0na-12" vertex="1">
          <mxGeometry x="1500" y="20" width="300" height="1020" as="geometry" />
        </mxCell>
        <mxCell id="8RAqlN66zT2HLcXRzkkI-86" value="&lt;span style=&quot;color: rgb(26, 26, 26);&quot;&gt;Realiza pago del consumo&lt;/span&gt;" style="points=[[0.25,0,0],[0.5,0,0],[0.75,0,0],[1,0.25,0],[1,0.5,0],[1,0.75,0],[0.75,1,0],[0.5,1,0],[0.25,1,0],[0,0.75,0],[0,0.5,0],[0,0.25,0]];shape=mxgraph.bpmn.task;whiteSpace=wrap;rectStyle=rounded;size=10;html=1;container=1;expand=0;collapsible=0;taskMarker=user;" vertex="1" parent="FAglLiWrUDAGm60mL0na-16">
          <mxGeometry x="89.99999999999955" y="450" width="120" height="80" as="geometry" />
        </mxCell>
        <mxCell id="8RAqlN66zT2HLcXRzkkI-45" style="edgeStyle=orthogonalEdgeStyle;rounded=0;orthogonalLoop=1;jettySize=auto;html=1;entryX=0.5;entryY=0;entryDx=0;entryDy=0;entryPerimeter=0;" edge="1" parent="FAglLiWrUDAGm60mL0na-12" source="8RAqlN66zT2HLcXRzkkI-74" target="8RAqlN66zT2HLcXRzkkI-18">
          <mxGeometry relative="1" as="geometry">
            <mxPoint x="340" y="210" as="sourcePoint" />
          </mxGeometry>
        </mxCell>
        <mxCell id="8RAqlN66zT2HLcXRzkkI-48" value="SI" style="edgeLabel;html=1;align=center;verticalAlign=middle;resizable=0;points=[];" vertex="1" connectable="0" parent="8RAqlN66zT2HLcXRzkkI-45">
          <mxGeometry x="-0.6257" y="1" relative="1" as="geometry">
            <mxPoint as="offset" />
          </mxGeometry>
        </mxCell>
        <mxCell id="8RAqlN66zT2HLcXRzkkI-60" style="edgeStyle=orthogonalEdgeStyle;rounded=0;orthogonalLoop=1;jettySize=auto;html=1;exitX=1;exitY=0.5;exitDx=0;exitDy=0;exitPerimeter=0;entryX=0;entryY=0.5;entryDx=0;entryDy=0;entryPerimeter=0;" edge="1" parent="FAglLiWrUDAGm60mL0na-12" source="8RAqlN66zT2HLcXRzkkI-57" target="8RAqlN66zT2HLcXRzkkI-13">
          <mxGeometry relative="1" as="geometry" />
        </mxCell>
        <mxCell id="8RAqlN66zT2HLcXRzkkI-69" style="edgeStyle=orthogonalEdgeStyle;rounded=0;orthogonalLoop=1;jettySize=auto;html=1;exitX=0;exitY=0.5;exitDx=0;exitDy=0;exitPerimeter=0;entryX=1;entryY=0.5;entryDx=0;entryDy=0;entryPerimeter=0;" edge="1" parent="FAglLiWrUDAGm60mL0na-12" source="8RAqlN66zT2HLcXRzkkI-63" target="8RAqlN66zT2HLcXRzkkI-68">
          <mxGeometry relative="1" as="geometry" />
        </mxCell>
        <mxCell id="8RAqlN66zT2HLcXRzkkI-94" style="edgeStyle=orthogonalEdgeStyle;rounded=0;orthogonalLoop=1;jettySize=auto;html=1;exitX=1;exitY=0.5;exitDx=0;exitDy=0;exitPerimeter=0;entryX=0;entryY=0.5;entryDx=0;entryDy=0;entryPerimeter=0;" edge="1" parent="FAglLiWrUDAGm60mL0na-12" source="8RAqlN66zT2HLcXRzkkI-38" target="8RAqlN66zT2HLcXRzkkI-18">
          <mxGeometry relative="1" as="geometry" />
        </mxCell>
        <mxCell id="8RAqlN66zT2HLcXRzkkI-96" style="edgeStyle=orthogonalEdgeStyle;rounded=0;orthogonalLoop=1;jettySize=auto;html=1;exitX=0.5;exitY=1;exitDx=0;exitDy=0;exitPerimeter=0;entryX=1;entryY=0.5;entryDx=0;entryDy=0;entryPerimeter=0;" edge="1" parent="FAglLiWrUDAGm60mL0na-12" source="8RAqlN66zT2HLcXRzkkI-86" target="8RAqlN66zT2HLcXRzkkI-23">
          <mxGeometry relative="1" as="geometry">
            <Array as="points">
              <mxPoint x="1650" y="860" />
              <mxPoint x="490" y="860" />
              <mxPoint x="490" y="620" />
            </Array>
          </mxGeometry>
        </mxCell>
        <mxCell id="8RAqlN66zT2HLcXRzkkI-101" style="edgeStyle=orthogonalEdgeStyle;rounded=0;orthogonalLoop=1;jettySize=auto;html=1;exitX=1;exitY=0.5;exitDx=0;exitDy=0;exitPerimeter=0;entryX=0;entryY=0.5;entryDx=0;entryDy=0;entryPerimeter=0;" edge="1" parent="FAglLiWrUDAGm60mL0na-12" source="8RAqlN66zT2HLcXRzkkI-12" target="8RAqlN66zT2HLcXRzkkI-86">
          <mxGeometry relative="1" as="geometry" />
        </mxCell>
        <mxCell id="8RAqlN66zT2HLcXRzkkI-102" style="edgeStyle=orthogonalEdgeStyle;rounded=0;orthogonalLoop=1;jettySize=auto;html=1;exitX=1;exitY=0.5;exitDx=0;exitDy=0;exitPerimeter=0;entryX=1;entryY=0.5;entryDx=0;entryDy=0;entryPerimeter=0;" edge="1" parent="FAglLiWrUDAGm60mL0na-12" source="8RAqlN66zT2HLcXRzkkI-86" target="8RAqlN66zT2HLcXRzkkI-98">
          <mxGeometry relative="1" as="geometry" />
        </mxCell>
      </root>
    </mxGraphModel>
  </diagram>
</mxfile>
